PathFileType	4	(X/Y/Z)	C:\Users\Basilio\Documents\Thesis Gigler\squatting_fais\c3dfiles\019\SLS_back_pre2\markers_experimental.trc
DataRate	CameraRate	NumFrames	NumMarkers	Units	OrigDataRate	OrigDataStartFrame	OrigNumFrames
200.000000	200.000000	4	59	mm	200.000000	555	1482
Frame#	Time	FHD			LBHD			RBHD			C7			T10			CLAV			LSHO			LUUPA			LMUPA			LDUPA			LLEP			LMEP			LRAD			LUL			LRFIN			RSHO			RUPA1			RMUPA			RDUPA			RLEP			RMEP			RRAD			RUL			RUFIN			LASI			RASI			USACR			LSACR			RSACR			LTHI1			LTHI2			LTHI3			LTHI4			LLFC			LTIB1			LTIB2			LTIB3			LTIB4			LLMAL			LMMAL			LHEE			LMT1			LMT2			LMT5			RTHI			RTHI2			RTHI3			RTHI4			RLFC			RTIB1			RTIB2			RTIB3			RTIB4			RLMAL			RMMAL			RHEE			RMT1			RMT2			RMT5			
		X1	Y1	Z1	X2	Y2	Z2	X3	Y3	Z3	X4	Y4	Z4	X5	Y5	Z5	X6	Y6	Z6	X7	Y7	Z7	X8	Y8	Z8	X9	Y9	Z9	X10	Y10	Z10	X11	Y11	Z11	X12	Y12	Z12	X13	Y13	Z13	X14	Y14	Z14	X15	Y15	Z15	X16	Y16	Z16	X17	Y17	Z17	X18	Y18	Z18	X19	Y19	Z19	X20	Y20	Z20	X21	Y21	Z21	X22	Y22	Z22	X23	Y23	Z23	X24	Y24	Z24	X25	Y25	Z25	X26	Y26	Z26	X27	Y27	Z27	X28	Y28	Z28	X29	Y29	Z29	X30	Y30	Z30	X31	Y31	Z31	X32	Y32	Z32	X33	Y33	Z33	X34	Y34	Z34	X35	Y35	Z35	X36	Y36	Z36	X37	Y37	Z37	X38	Y38	Z38	X39	Y39	Z39	X40	Y40	Z40	X41	Y41	Z41	X42	Y42	Z42	X43	Y43	Z43	X44	Y44	Z44	X45	Y45	Z45	X46	Y46	Z46	X47	Y47	Z47	X48	Y48	Z48	X49	Y49	Z49	X50	Y50	Z50	X51	Y51	Z51	X52	Y52	Z52	X53	Y53	Z53	X54	Y54	Z54	X55	Y55	Z55	X56	Y56	Z56	X57	Y57	Z57	X58	Y58	Z58	X59	Y59	Z59	

556	2.775	-189.151351928711	1701.701538085938	-653.5328369140626	-318.0463256835938	1664.336303710938	-795.0042114257815	-319.5470886230469	1658.561401367188	-655.2543334960939	-344.4475708007813	1487.973388671875	-716.3029174804689	-403.0205383300782	1209.562255859375	-716.6201782226564	-210.5558013916016	1438.75439453125	-723.3189086914064	-264.8138122558594	1473.1943359375	-866.702575683594	-142.2300109863282	1417.61376953125	-918.6391601562502	-116.7285614013672	1416.101440429688	-876.4187011718752	-76.34148406982423	1404.105102539063	-920.037048339844	-11.75506019592285	1355.83447265625	-943.652038574219	-22.01180839538575	1303.317016601563	-918.2452392578127	229.4377136230469	1363.754272460938	-868.9309082031252	233.0851745605469	1313.965698242188	-911.9569091796877	301.8040466308594	1379.673217773438	-876.376403808594	-252.2304840087891	1475.261352539063	-587.6821899414064	-143.209701538086	1370.00927734375	-499.4221496582032	-111.6211090087891	1398.439331054688	-526.7387695312501	-76.16275024414064	1355.251831054688	-502.4114990234376	-3.357288599014283	1335.545288085938	-515.4939575195314	-20.77038955688477	1287.796875	-540.8222656250001	237.3135833740235	1360.042724609375	-579.2520751953126	247.0317840576172	1304.120727539063	-542.5767822265626	322.0169067382813	1362.206665039063	-564.6968383789064	-295.1882934570313	988.5362548828127	-842.3030395507815	-280.5719604492188	977.9622192382815	-637.7866210937501	-430.0328369140626	1083.255981445313	-723.3989257812501	-443.0258178710939	1053.638305664063	-751.7955322265626	-437.3905029296876	1051.934692382813	-694.1314086914064	-347.3172607421876	739.4070434570314	-926.0937500000002	-304.1092529296876	666.7808227539064	-934.1084594726565	-257.7978210449219	673.0422363281251	-919.8702392578127	-324.5228271484376	609.6356811523439	-926.2479248046877	-330.6218566894532	523.6750488281251	-915.7322998046877	-410.0802612304689	409.246307373047	-882.728210449219	-473.8011779785157	438.6582336425782	-935.879333496094	-460.9910583496095	405.9135131835939	-910.7956542968752	-532.5308837890626	374.3045349121094	-869.360534667969	-682.4235839843751	388.3882751464845	-897.659606933594	-662.8758544921876	379.9321594238282	-813.1204223632815	-740.8179931640626	432.7313537597657	-847.664978027344	-680.1335449218751	230.7420959472657	-815.3236083984377	-682.9869384765626	223.5802764892579	-854.3151855468752	-723.5061035156251	250.4248046875001	-904.695007324219	-315.3727416992188	783.0941162109377	-569.0200805664064	-267.2642211914063	742.9282226562501	-583.7355346679689	-246.0916900634766	751.4659423828126	-607.1447753906251	-277.3689575195313	658.9060058593751	-587.7843017578126	-293.5495605468751	499.6259765625001	-631.4247436523439	-274.8878173828126	325.1149902343751	-711.4784545898439	-334.9205017089844	246.4848937988282	-661.4094848632814	-303.4729614257813	243.9488983154297	-696.4288330078126	-320.6233825683594	209.5464324951172	-740.9591064453126	-389.2476501464845	127.9704208374024	-701.7375488281251	-375.1117248535157	138.6061401367188	-776.5385742187502	-458.8768005371095	107.5066146850586	-752.9743652343751	-259.3869934082032	56.05463027954103	-785.226013183594	-254.2332153320313	59.00252532958986	-739.6462402343751	-292.9467468261719	47.8437843322754	-684.2505493164064	
557	2.78	-188.5408020019532	1701.19384765625	-653.6208496093751	-317.4620361328126	1663.748657226563	-794.9946899414065	-318.8125000000001	1657.732421875	-655.2358398437501	-343.8808593750001	1487.489013671875	-716.2608032226564	-403.1733398437501	1209.22509765625	-716.5930175781251	-210.1605529785157	1438.03564453125	-723.1475219726564	-264.2662353515626	1472.66455078125	-866.4586181640627	-141.8774719238282	1416.915893554688	-918.5487060546877	-116.3285217285157	1415.365112304688	-876.3688964843752	-75.71926879882814	1403.2880859375	-919.920104980469	-11.30293083190918	1355.079711914063	-943.6148681640627	-21.70448875427246	1302.549438476563	-918.325134277344	229.8504333496094	1362.943725585938	-868.7822265625002	233.5411376953126	1313.1328125	-911.8535766601565	302.8333740234376	1378.542358398438	-875.940368652344	-252.0076293945313	1474.968994140625	-587.7658081054689	-142.8877410888672	1369.460327148438	-499.4161376953126	-111.3813018798828	1397.771118164063	-526.7202148437501	-75.78802490234376	1354.705688476563	-502.4083862304689	-2.974775075912476	1334.954345703125	-515.5537719726564	-20.41955375671387	1287.249145507813	-540.6790771484376	237.5219421386719	1359.396484375	-579.3594970703126	247.4635009765626	1303.524047851563	-542.7689819335939	322.4825744628907	1361.417358398438	-565.0277709960939	-295.7189636230469	988.0201416015627	-842.2236328125002	-281.1726074218751	977.443786621094	-637.6658325195314	-430.5262451171876	1082.903564453125	-723.3207397460939	-443.4608459472657	1053.41015625	-751.7361450195314	-437.5281066894532	1051.66455078125	-694.0215454101564	-348.1360168457032	738.9588623046876	-925.9536132812502	-304.9210510253907	665.9921264648439	-933.6965942382815	-258.6026306152344	672.2878417968751	-919.6302490234377	-325.4554443359376	609.1737060546876	-926.1035156250002	-331.8828735351563	523.2332153320314	-915.5875244140627	-411.3417358398439	408.8739318847657	-882.457702636719	-475.053924560547	438.4422912597657	-935.7294921875002	-462.2261352539064	405.6069335937501	-910.6885375976565	-534.6004638671876	374.1792907714844	-871.6030273437502	-683.7684326171876	388.5433044433595	-897.667907714844	-663.9968872070314	379.7795104980469	-813.137878417969	-742.0039672851564	432.9188842773439	-847.6185302734377	-681.7281494140626	230.8892059326172	-815.1553955078127	-684.4739990234376	223.7579956054688	-854.1878051757815	-725.0857543945314	250.6527557373047	-904.5496215820315	-315.6081848144532	782.9370727539065	-569.2584838867189	-267.4590148925782	743.0128173828126	-584.1133422851564	-246.3643341064454	751.5916748046876	-607.5704956054689	-277.2999572753907	658.9631347656251	-588.0301513671876	-293.0133056640626	499.4160766601564	-631.4106445312501	-274.6629943847657	324.9688720703126	-711.5095825195314	-334.6737060546876	246.3734436035157	-661.5173950195314	-303.2855529785157	243.8459625244141	-696.5572509765626	-320.5126037597657	209.4528198242188	-741.0366210937501	-389.1923828125001	127.8825225830078	-701.7742919921876	-375.1067504882813	138.5189971923828	-776.5237426757815	-458.8832092285157	107.5098571777344	-753.0155029296876	-259.3943786621094	55.99639129638673	-785.2197265625002	-254.2388153076172	58.99271774291994	-739.6511230468751	-292.9418640136719	47.88415908813477	-684.2481689453126	
558	2.785	-187.9087982177735	1700.443359375	-653.4227294921876	-316.5417785644532	1662.950561523438	-794.970397949219	-318.2401123046876	1657.078125	-655.1237792968751	-343.4612121582032	1487.034057617188	-716.2118530273439	-403.2050781250001	1208.89111328125	-716.5652465820314	-209.7847900390626	1437.365600585938	-723.0498046875001	-263.6428833007813	1471.970947265625	-866.1994628906252	-141.4879455566407	1416.192504882813	-918.4687500000002	-115.995101928711	1414.660034179688	-876.3396606445315	-75.41872406005861	1402.4921875	-919.8822021484377	-10.88423252105713	1354.3447265625	-943.593688964844	-21.39196205139161	1301.835327148438	-918.3563232421877	230.1324920654297	1362.109252929688	-868.6840820312502	233.7967987060547	1312.312377929688	-911.7716064453127	302.1708374023438	1377.982421875	-876.155700683594	-251.5743713378907	1474.005493164063	-587.5615844726564	-142.681884765625	1368.912719726563	-499.3699035644532	-110.9518737792969	1397.14990234375	-526.7415161132814	-75.57333374023439	1354.142700195313	-502.4407348632814	-2.670578002929688	1334.27880859375	-515.6717529296876	-20.36980247497559	1286.301513671875	-541.2014770507814	237.8087005615235	1358.733520507813	-579.5407104492189	247.7414093017579	1302.835815429688	-543.0385131835939	322.7445373535157	1360.846435546875	-565.4073486328126	-296.4229125976563	987.4932250976565	-842.1049804687502	-281.7562255859376	976.982604980469	-637.5432739257814	-431.184051513672	1082.438842773438	-723.2442016601564	-443.8684082031251	1053.048217773438	-751.7432250976564	-437.8416442871095	1051.43505859375	-693.8914184570314	-349.1160583496094	738.5503540039064	-925.8856201171877	-305.6022644042969	665.3318481445314	-933.5093383789065	-259.3930969238282	671.6972656250001	-919.391052246094	-326.5480041503907	608.7409667968751	-925.924499511719	-332.8160400390626	522.6679687500001	-915.3200683593752	-412.6267395019532	408.5191040039064	-882.3824462890627	-476.1888732910157	438.1809997558595	-935.5620727539065	-463.3372802734376	405.2318725585939	-910.4338378906252	-536.0246582031251	374.1506042480469	-871.5250244140627	-684.9993896484376	388.6384277343751	-897.565368652344	-665.5750122070314	380.2757873535157	-813.0196533203127	-743.1922607421876	433.094696044922	-847.6380004882815	-683.2270507812501	231.1914978027344	-815.0416259765627	-686.0374755859376	223.978500366211	-853.8946533203127	-726.5339355468751	250.8394927978516	-904.4168090820315	-315.8505249023438	782.881042480469	-569.4179687500001	-267.7538146972657	743.0795288085939	-584.5137939453126	-246.5168457031251	751.7398681640626	-607.8174438476564	-277.0719299316407	658.9699707031251	-588.2035522460939	-292.6060485839844	499.3309631347657	-631.5222778320314	-274.4359130859376	324.8530883789063	-711.5932617187501	-334.5416870117188	246.3291931152344	-661.6484375000001	-303.0727539062501	243.7925720214844	-696.6784057617189	-320.3834838867188	209.399642944336	-741.1596069335939	-389.121551513672	127.9151229858399	-701.7935791015626	-375.0986938476563	138.4226379394532	-776.546081542969	-458.8110351562501	107.4783401489258	-753.0533447265626	-259.7122192382813	56.25965118408205	-785.2835083007815	-254.1666564941407	59.00504684448244	-739.6322631835939	-292.9112243652344	47.91489791870118	-684.2511596679689	
559	2.79	-187.3033294677735	1699.919677734375	-653.5709838867189	-315.9096984863282	1662.297241210938	-794.930358886719	-317.6525878906251	1656.494384765625	-655.0324096679689	-342.9607849121094	1486.554809570313	-716.1456909179689	-403.3198242187501	1208.539428710938	-716.4792480468751	-209.3111724853516	1436.594848632813	-722.9606323242189	-263.0289611816407	1471.2451171875	-866.1492309570315	-140.9654693603516	1415.4267578125	-918.4180297851565	-115.5531082153321	1413.921508789063	-876.2608642578127	-75.05323028564455	1401.806518554688	-919.8155517578127	-10.73753833770752	1353.726806640625	-943.5729980468752	-20.98720741271973	1301.104614257813	-918.4190673828127	230.5795440673829	1361.135864257813	-868.5296020507815	234.2132568359376	1311.474609375	-911.6684570312502	302.5981445312501	1377.196533203125	-876.0379638671877	-251.2244873046876	1473.521118164063	-587.7056274414064	-142.4419403076172	1368.370239257813	-499.3320312500001	-110.5366516113282	1396.281616210938	-526.7000732421876	-75.29640197753908	1353.511840820313	-502.4028625488282	-2.375235557556153	1333.66748046875	-515.8925170898439	-20.03959655761719	1285.748413085938	-540.9472656250001	238.0980987548829	1358.117553710938	-579.7652587890626	248.0924530029297	1302.213500976563	-543.1776123046876	323.1134643554688	1360.212646484375	-565.7662353515626	-297.0332641601563	986.9915161132815	-842.0493774414065	-282.3498840332032	976.5308227539065	-637.4606933593751	-431.2329101562501	1082.344604492188	-723.2680053710939	-444.7950744628907	1053.019165039063	-751.5915527343751	-438.3342590332032	1051.271484375	-693.7772827148439	-349.9414978027344	738.2896118164064	-925.7009887695315	-306.3204040527344	664.7374267578126	-933.2910156250002	-260.2786254882813	671.1082763671876	-919.1174316406252	-327.4636535644532	608.2465820312501	-925.7912597656252	-333.8100891113282	522.2680664062501	-915.1318969726565	-413.9012451171876	408.3087768554689	-882.2474365234377	-477.622283935547	438.0779724121095	-935.3831787109377	-464.5214843750001	404.9626770019532	-910.3234863281252	-536.4547119140626	374.1169433593751	-868.6621704101565	-686.3463745117189	388.7744445800782	-897.559020996094	-666.7978515625001	380.2563171386719	-812.872009277344	-744.4467773437501	433.369110107422	-847.562194824219	-684.8045043945314	231.3787384033204	-814.8382568359377	-687.6132812500001	223.9042205810547	-853.744323730469	-727.9803466796876	250.9778137207032	-904.315124511719	-316.0879821777344	782.8074951171877	-569.6649780273439	-267.8698425292969	743.2440185546876	-584.8712158203126	-246.1406707763672	752.2015380859376	-607.9630737304689	-276.7669982910157	658.9927978515626	-588.5000000000001	-292.2182006835938	499.4088745117189	-631.5982666015626	-274.2437438964844	324.7676391601563	-711.7479858398439	-334.2748718261719	246.2853698730469	-661.7631835937501	-302.9255065917969	243.6849212646485	-696.8475952148439	-320.3403625488282	209.3032989501954	-741.3097534179689	-389.1394348144532	127.9900436401367	-701.8944702148439	-375.2044982910157	138.4644012451172	-776.637145996094	-458.8118896484376	107.4733428955078	-753.0505981445314	-259.7353820800782	56.24789428710939	-785.3142700195315	-254.2199707031251	58.99320220947267	-739.6466674804689	-292.9679260253907	47.96749114990235	-684.2556152343751	
